<svg xmlns="http://www.w3.org/2000/svg" width="1030" height="358.842" viewBox="0 0 1030 358.842">
  <g id="img7" transform="translate(-285 -2245)">
    <g id="Grupo_1100912" data-name="Grupo 1100912">
      <path id="Trazado_873968" data-name="Trazado 873968" d="M0,0H1030V358.842H0Z" transform="translate(285 2245)" fill="#d4fefa"/>
      <g id="Grupo_1100911" data-name="Grupo 1100911" transform="translate(0 -30)">
        <rect id="Rectángulo_401788" data-name="Rectángulo 401788" width="62" height="27" transform="translate(547 2442)" fill="#075214"/>
        <path id="Polígono_5" data-name="Polígono 5" d="M29,0,58,50H0Z" transform="translate(644 2426) rotate(90)" fill="#075214"/>
        <g id="Grupo_1100910" data-name="Grupo 1100910">
          <g id="Rectángulo_401786" data-name="Rectángulo 401786" transform="translate(318 2338)" fill="#e7fdeb" stroke="#99eca7" stroke-width="3">
            <rect width="210" height="261" stroke="none"/>
            <rect x="1.5" y="1.5" width="207" height="258" fill="none"/>
          </g>
          <g id="Rectángulo_401789" data-name="Rectángulo 401789" transform="translate(663 2338)" fill="#e7fdeb" stroke="#99eca7" stroke-width="3">
            <rect width="210" height="261" stroke="none"/>
            <rect x="1.5" y="1.5" width="207" height="258" fill="none"/>
          </g>
          <g id="Rectángulo_401790" data-name="Rectángulo 401790" transform="translate(868 2338)" fill="#e7fdeb" stroke="#99eca7" stroke-width="3">
            <rect width="210" height="261" stroke="none"/>
            <rect x="1.5" y="1.5" width="207" height="258" fill="none"/>
          </g>
          <g id="Rectángulo_401791" data-name="Rectángulo 401791" transform="translate(1072 2338)" fill="#e7fdeb" stroke="#99eca7" stroke-width="3">
            <rect width="210" height="261" stroke="none"/>
            <rect x="1.5" y="1.5" width="207" height="258" fill="none"/>
          </g>
          <path id="Trazado_611088" data-name="Trazado 611088" d="M7.47,0H202.53C206.655,0,210,4.029,210,9V28c0,4.971-3.345,9-7.47,9H7.47C3.345,37,0,32.971,0,28V9C0,4.029,3.345,0,7.47,0Z" transform="translate(318 2310)" fill="#99eca7"/>
          <text id="Color" transform="translate(952 2319)" fill="#12263f" font-size="17" font-family="Roboto-Medium, Roboto" font-weight="500"><tspan x="0" y="16">Color</tspan></text>
          <text id="Color-2" data-name="Color" transform="translate(1156 2319)" fill="#12263f" font-size="17" font-family="Roboto-Medium, Roboto" font-weight="500"><tspan x="0" y="16">Color</tspan></text>
          <path id="Trazado_873969" data-name="Trazado 873969" d="M-12474.334-9466.75v209" transform="translate(9785.25 -10064.334) rotate(-90)" fill="none" stroke="#99eca7" stroke-width="3"/>
          <path id="Trazado_873975" data-name="Trazado 873975" d="M-12474.334-9466.75v209" transform="translate(10130.25 -10064.334) rotate(-90)" fill="none" stroke="#99eca7" stroke-width="3"/>
          <path id="Trazado_873979" data-name="Trazado 873979" d="M-12474.334-9466.75v209" transform="translate(10335.25 -10064.334) rotate(-90)" fill="none" stroke="#99eca7" stroke-width="3"/>
          <path id="Trazado_873983" data-name="Trazado 873983" d="M-12474.334-9466.75v209" transform="translate(10539.25 -10064.334) rotate(-90)" fill="none" stroke="#99eca7" stroke-width="3"/>
          <path id="Trazado_873970" data-name="Trazado 873970" d="M-12474.334-9466.75v209" transform="translate(9785.25 -10001.334) rotate(-90)" fill="none" stroke="#99eca7" stroke-width="3"/>
          <path id="Trazado_873974" data-name="Trazado 873974" d="M-12474.334-9466.75v209" transform="translate(10130.25 -10001.334) rotate(-90)" fill="none" stroke="#99eca7" stroke-width="3"/>
          <path id="Trazado_873978" data-name="Trazado 873978" d="M-12474.334-9466.75v209" transform="translate(10335.25 -10001.334) rotate(-90)" fill="none" stroke="#99eca7" stroke-width="3"/>
          <path id="Trazado_873982" data-name="Trazado 873982" d="M-12474.334-9466.75v209" transform="translate(10539.25 -10001.334) rotate(-90)" fill="none" stroke="#99eca7" stroke-width="3"/>
          <path id="Trazado_873972" data-name="Trazado 873972" d="M-12474.334-9466.75v209" transform="translate(9785.25 -9938.334) rotate(-90)" fill="none" stroke="#99eca7" stroke-width="3"/>
          <path id="Trazado_873973" data-name="Trazado 873973" d="M-12474.334-9466.75v209" transform="translate(10130.25 -9938.334) rotate(-90)" fill="none" stroke="#99eca7" stroke-width="3"/>
          <path id="Trazado_873977" data-name="Trazado 873977" d="M-12474.334-9466.75v209" transform="translate(10335.25 -9938.334) rotate(-90)" fill="none" stroke="#99eca7" stroke-width="3"/>
          <path id="Trazado_873981" data-name="Trazado 873981" d="M-12474.334-9466.75v209" transform="translate(10539.25 -9938.334) rotate(-90)" fill="none" stroke="#99eca7" stroke-width="3"/>
          <rect id="Rectángulo_401792" data-name="Rectángulo 401792" width="619" height="37" rx="7" transform="translate(663 2310)" fill="#99eca7"/>
        </g>
      </g>
    </g>
    <g id="Grupo_1101419" data-name="Grupo 1101419">
      <text id="Color-3" data-name="Color" transform="translate(402 2289)" fill="#12263f" font-size="17" font-family="Roboto-Medium, Roboto" font-weight="500"><tspan x="0" y="16">Color</tspan></text>
      <text id="Amarillo" transform="translate(390 2339)" fill="#12263f" font-size="17" font-family="Roboto-Medium, Roboto" font-weight="500"><tspan x="0" y="16">Amarillo</tspan></text>
      <text id="_1" data-name="1" transform="translate(735 2339)" fill="#12263f" font-size="17" font-family="Roboto-Medium, Roboto" font-weight="500"><tspan x="-4.831" y="16">1</tspan></text>
      <text id="_0" data-name="0" transform="translate(940 2339)" fill="#12263f" font-size="17" font-family="Roboto-Medium, Roboto" font-weight="500"><tspan x="-4.831" y="16">0</tspan></text>
      <text id="_0-2" data-name="0" transform="translate(1144 2339)" fill="#12263f" font-size="17" font-family="Roboto-Medium, Roboto" font-weight="500"><tspan x="-4.831" y="16">0</tspan></text>
      <text id="Verde" transform="translate(398 2401)" fill="#12263f" font-size="17" font-family="Roboto-Medium, Roboto" font-weight="500"><tspan x="0" y="16">Verde</tspan></text>
      <text id="_0-3" data-name="0" transform="translate(743 2401)" fill="#12263f" font-size="17" font-family="Roboto-Medium, Roboto" font-weight="500"><tspan x="-4.831" y="16">0</tspan></text>
      <text id="_1-2" data-name="1" transform="translate(948 2401)" fill="#12263f" font-size="17" font-family="Roboto-Medium, Roboto" font-weight="500"><tspan x="-4.831" y="16">1</tspan></text>
      <text id="_0-4" data-name="0" transform="translate(1152 2401)" fill="#12263f" font-size="17" font-family="Roboto-Medium, Roboto" font-weight="500"><tspan x="-4.831" y="16">0</tspan></text>
      <text id="Rojo" transform="translate(404 2465)" fill="#12263f" font-size="17" font-family="Roboto-Medium, Roboto" font-weight="500"><tspan x="0" y="16">Rojo</tspan></text>
      <text id="_0-5" data-name="0" transform="translate(749 2465)" fill="#12263f" font-size="17" font-family="Roboto-Medium, Roboto" font-weight="500"><tspan x="-4.831" y="16">0</tspan></text>
      <text id="_0-6" data-name="0" transform="translate(954 2465)" fill="#12263f" font-size="17" font-family="Roboto-Medium, Roboto" font-weight="500"><tspan x="-4.831" y="16">0</tspan></text>
      <text id="_1-3" data-name="1" transform="translate(1158 2465)" fill="#12263f" font-size="17" font-family="Roboto-Medium, Roboto" font-weight="500"><tspan x="-4.831" y="16">1</tspan></text>
      <text id="Amarillo-2" data-name="Amarillo" transform="translate(391 2528)" fill="#12263f" font-size="17" font-family="Roboto-Medium, Roboto" font-weight="500"><tspan x="0" y="16">Amarillo</tspan></text>
      <text id="_1-4" data-name="1" transform="translate(736 2528)" fill="#12263f" font-size="17" font-family="Roboto-Medium, Roboto" font-weight="500"><tspan x="-4.831" y="16">1</tspan></text>
      <text id="_0-7" data-name="0" transform="translate(941 2528)" fill="#12263f" font-size="17" font-family="Roboto-Medium, Roboto" font-weight="500"><tspan x="-4.831" y="16">0</tspan></text>
      <text id="_0-8" data-name="0" transform="translate(1145 2528)" fill="#12263f" font-size="17" font-family="Roboto-Medium, Roboto" font-weight="500"><tspan x="-4.831" y="16">0</tspan></text>
      <text id="Amarillo-3" data-name="Amarillo" transform="translate(735 2289)" fill="#12263f" font-size="17" font-family="Roboto-Medium, Roboto" font-weight="500"><tspan x="0" y="16">Amarillo</tspan></text>
      <text id="Verde-2" data-name="Verde" transform="translate(949 2289)" fill="#12263f" font-size="17" font-family="Roboto-Medium, Roboto" font-weight="500"><tspan x="0" y="16">Verde</tspan></text>
      <text id="Rojo-2" data-name="Rojo" transform="translate(1159 2289)" fill="#12263f" font-size="17" font-family="Roboto-Medium, Roboto" font-weight="500"><tspan x="0" y="16">Rojo</tspan></text>
    </g>
  </g>
</svg>
